<svg width="182" height="87" viewBox="0 0 182 87" fill="none" xmlns="http://www.w3.org/2000/svg">
<g filter="url(#filter0_i_1180_1298)">
<g clip-path="url(#clip0_1180_1298)">
<path d="M24.0234 86.3199C19.2348 86.3199 15.0434 85.2364 11.449 83.0772C7.84321 80.918 5.04125 77.9205 3.02015 74.1005C1.01055 70.2804 0 65.9067 0 60.9636C0 58.8677 0.252636 56.7877 0.769393 54.7313C1.27467 52.6671 1.90626 50.7135 2.66417 48.847C3.42208 46.9884 4.1685 45.3354 4.92641 43.8802C5.68432 42.4249 6.29294 41.2623 6.77525 40.3844L20.9573 16.3489C21.2215 16.0088 21.5774 15.5897 22.0023 15.0835C22.4272 14.5773 23.0473 14.3242 23.8512 14.3242H34.5767C35.059 14.3242 35.461 14.5457 35.7825 14.9807C36.104 15.4236 36.2648 15.9456 36.2648 16.5546C36.2648 16.8235 36.2418 17.0766 36.1844 17.3138C36.127 17.5511 36.0466 17.733 35.9433 17.8754L25.0569 36.5327C25.3785 36.3983 25.7689 36.3113 26.2283 36.2796C26.6876 36.248 27.101 36.2322 27.48 36.2322C29.903 36.3666 32.2915 37.0468 34.6571 38.2569C37.0227 39.4749 39.1701 41.1278 41.1108 43.2237C43.0401 45.3196 44.5903 47.8347 45.7502 50.7768C46.91 53.719 47.4842 56.9775 47.4842 60.5603C47.4842 65.2898 46.5196 69.6003 44.5788 73.4915C42.6496 77.3827 39.9166 80.491 36.4026 82.8241C32.8772 85.1573 28.7546 86.3199 24.0234 86.3199ZM23.8627 71.7199C25.4244 71.7199 26.8713 71.3007 28.2149 70.4544C29.5585 69.6082 30.6494 68.3744 31.4762 66.753C32.303 65.1317 32.7279 63.1702 32.7279 60.8687C32.7279 58.5672 32.326 56.5267 31.5221 54.937C30.7183 53.3472 29.6388 52.1451 28.2953 51.3384C26.9517 50.5237 25.4703 50.1204 23.8627 50.1204C22.255 50.1204 20.7621 50.5237 19.3841 51.3384C18.0061 52.153 16.9266 53.3472 16.1228 54.937C15.319 56.5267 14.917 58.5039 14.917 60.8687C14.917 63.2335 15.3304 65.1317 16.1687 66.753C16.9955 68.3744 18.0865 69.6082 19.43 70.4544C20.7736 71.3007 22.255 71.7199 23.8627 71.7199Z" fill="#B5B2B2"/>
<path d="M86.6215 79.3069C86.6215 79.9044 86.5759 80.4939 86.5987 81.0913C86.6215 81.5079 86.4845 81.5944 86.119 81.5944C82.7956 81.5787 79.4722 81.5866 76.1488 81.5944C75.9547 81.5944 75.7491 81.618 75.555 81.6259C74.9154 81.7359 74.7327 81.3507 74.7669 80.7533C74.8697 79.4563 74.8012 78.1593 74.8012 76.8622C74.8012 76.4535 74.8811 76.2805 75.2923 76.3041C75.8862 76.3434 76.4915 76.2963 77.0853 76.3198C77.4622 76.3356 77.6221 76.2491 77.5992 75.7932C77.565 74.9992 77.5764 74.2053 77.5992 73.4113C77.5992 73.0891 77.4965 72.8768 77.2909 72.6567C76.5143 71.8392 75.7491 71.0059 74.9725 70.1963C74.7898 69.9998 74.7213 69.8426 74.904 69.6146C75.4864 69.1115 75.9889 68.5377 76.48 67.9402C76.7427 67.673 76.994 67.3821 77.2795 67.1384C77.5878 66.8633 77.6906 66.541 77.6792 66.1087C77.6564 65.0632 77.6792 64.0177 77.6792 62.9722C77.6792 62.7757 77.6906 62.5792 77.5764 62.3984C77.2338 61.8481 76.8912 61.2979 76.5486 60.7398C76.4458 60.5826 76.3544 60.5197 76.1831 60.6297C75.0639 61.3686 73.9447 62.0997 72.8254 62.8386C71.7747 63.4282 70.7697 64.0885 69.7761 64.7881C69.4678 64.8745 69.2508 65.189 68.8396 65.244C69.0909 64.4815 69.3307 63.774 69.5591 63.0587C70.0502 61.6595 70.5642 60.2681 70.9753 58.8296C71.4664 57.7763 71.4435 57.7212 70.37 57.7448C70.3586 57.7448 70.3357 57.7448 70.3243 57.7448C68.6112 57.6112 66.8867 57.4697 65.0937 57.3282C65.7903 56.4242 66.4299 55.5831 67.0809 54.742C67.8346 53.8144 68.5998 52.879 69.4335 51.8571C67.6405 51.5033 65.9502 51.1732 64.1458 50.8195C65.5048 49.5224 66.7839 48.2883 68.1201 46.9991C65.7218 45.7335 63.4034 44.5073 61.0508 43.2653C61.1878 43.0137 61.4162 43.0373 61.5876 42.9823C63.472 42.4006 65.3678 41.8189 67.2636 41.2686C67.6519 41.1586 67.6976 41.0564 67.4692 40.6791C65.5277 37.4561 63.609 34.2175 61.6903 30.9867C61.5647 30.7745 61.4391 30.5622 61.3135 30.3343C61.5761 30.2321 61.736 30.3814 61.9188 30.4522C64.4998 31.4662 67.0809 32.496 69.6619 33.5179C70.1759 33.7223 70.1759 33.7223 70.1073 33.117C69.9703 31.9772 69.8447 30.8374 69.6962 29.5875C71.1809 30.4758 72.5856 31.3169 74.0817 32.213C73.7733 29.8469 73.4764 27.5987 73.1909 25.3584C73.2137 25.3348 73.248 25.3034 73.2708 25.2798C74.6984 26.8755 76.1374 28.4634 77.6678 30.1771C77.6678 28.935 77.7135 27.8581 77.6564 26.7891C77.5993 25.7593 77.8162 24.8553 78.2845 23.9592C79.0611 22.442 79.7578 20.8856 80.4887 19.337C80.5458 19.227 80.6029 19.1248 80.6714 18.999C80.7285 19.054 80.7742 19.0776 80.7856 19.1169C81.7221 21.09 82.6586 23.0709 83.5951 25.044C83.6979 25.2641 83.7093 25.492 83.7093 25.7279C83.7093 27.1349 83.7321 28.5499 83.6979 29.957C83.675 30.6173 84.0176 31.081 84.2689 31.5999C84.4288 31.9143 84.5887 31.6156 84.7029 31.5212C85.9591 30.4836 87.2154 29.4303 88.4717 28.3927C88.6201 28.2669 88.7572 28.0939 89.0199 28.0389C88.8714 29.2809 88.7229 30.4915 88.5859 31.702C88.4831 32.5982 88.4488 32.5038 89.1797 32.2759C91.2126 31.647 93.2455 31.026 95.2784 30.405C95.4497 30.3579 95.6096 30.2321 95.8151 30.3107C95.8608 30.5072 95.7352 30.6566 95.6781 30.8138C95.0956 32.3152 94.5132 33.8087 93.9422 35.3101C93.6795 35.9862 93.6795 35.9862 94.3304 35.8997C96.1692 35.6639 97.9965 35.4281 99.8352 35.1922C100.018 35.1686 100.189 35.1608 100.395 35.1372C100.372 35.4202 100.178 35.5302 100.052 35.6796C98.1335 37.8649 96.2149 40.0423 94.2734 42.2119C93.9993 42.5263 93.9878 42.6993 94.319 42.9508C94.6959 43.2417 95.0385 43.5954 95.4154 43.902C95.6438 44.0828 95.621 44.2085 95.4268 44.4051C94.8786 44.9632 94.3419 45.5292 93.8051 46.0951C93.4701 46.4515 93.4777 46.8105 93.8279 47.1721C94.7073 48.0761 95.5867 48.9879 96.4775 49.8919C96.6032 50.0098 96.763 50.0884 96.9001 50.1827C96.8658 50.2378 96.8316 50.3007 96.7973 50.3557C95.6895 50.8037 94.5931 51.2597 93.4853 51.7077C93.1275 51.8545 93.0628 52.1008 93.2912 52.4466C94.0564 53.61 94.8215 54.7734 95.5753 55.9368C95.6552 56.0626 95.7923 56.1727 95.7809 56.4006C94.8786 56.5185 93.9764 56.66 93.0742 56.7465C92.6059 56.7858 92.5717 56.9351 92.743 57.3754C93.394 58.9632 94.0107 60.559 94.6388 62.1547C94.7073 62.3276 94.7644 62.5084 94.8672 62.7993C94.5132 62.6735 94.2505 62.5871 93.9878 62.4927C92.9714 62.0997 91.9435 61.7066 90.9271 61.3215C90.7786 61.2664 90.5959 61.1014 90.4703 61.2193C90.3218 61.345 90.4703 61.5573 90.516 61.7145C90.9043 63.2631 91.304 64.8038 91.7151 66.3681C91.4753 66.3681 91.3611 66.1951 91.224 66.0851C89.0655 64.3557 86.9071 62.6264 84.76 60.897C84.2803 60.5118 83.7321 60.7476 83.7207 61.4001C83.6864 63.1137 83.7207 64.8352 83.7207 66.5489C83.7207 66.7768 83.8806 66.8948 84.0062 67.0363C84.8057 67.8852 85.5823 68.7499 86.3931 69.5753C86.6444 69.8347 86.6101 69.9762 86.3931 70.212C85.6508 70.9824 84.9313 71.7999 84.1775 72.5624C83.8577 72.8768 83.7321 73.2148 83.8121 73.6629C83.7892 74.2053 83.755 74.7477 83.8349 75.2822C83.6979 76.3356 83.7207 76.367 84.4745 76.2727C84.8742 76.3434 85.2625 76.3277 85.6622 76.2884C86.2713 76.3408 86.5759 76.7103 86.5759 77.3968C86.5759 77.4832 86.5759 77.5776 86.5759 77.664C86.5759 77.7112 86.5759 77.7584 86.5759 77.8055C86.5759 78.3086 86.5873 78.8196 86.5987 79.3227L86.6215 79.3069ZM78.353 61.7931C78.353 63.4753 78.3644 65.1497 78.3758 66.8319C78.3758 67.0127 78.3073 67.107 78.1817 67.2328C77.4279 68.0031 76.7084 68.8049 75.9661 69.5753C75.7148 69.8347 75.772 70.0076 76.0004 70.2356C76.6856 70.9431 77.348 71.682 78.0332 72.3894C78.216 72.5781 78.2959 72.7746 78.2845 73.0498C78.2731 74.221 78.2617 75.4001 78.2845 76.5714C78.2845 76.9251 78.2274 77.0902 77.8619 77.0666C77.211 77.0352 76.56 77.0666 75.9204 77.0509C75.6235 77.0509 75.4979 77.1767 75.4979 77.4989C75.4979 78.458 75.4979 79.417 75.4979 80.3681C75.4979 80.6747 75.5892 80.8319 75.8976 80.8319C79.0954 80.8319 82.2931 80.8319 85.4795 80.8319C85.7764 80.8319 85.8906 80.714 85.8906 80.3839C85.8906 79.4248 85.8792 78.4658 85.8906 77.5147C85.8906 77.1531 85.7536 77.043 85.4452 77.0509C84.7942 77.0666 84.1433 77.0352 83.5037 77.0666C83.1954 77.0823 83.104 76.9801 83.1154 76.6421C83.1268 75.4316 83.1268 74.221 83.1154 73.0104C83.1154 72.7275 83.2068 72.5388 83.3781 72.3501C84.0519 71.6505 84.7029 70.9195 85.3767 70.2277C85.6394 69.9683 85.6508 69.8111 85.3767 69.536C84.6344 68.7813 83.9263 67.9953 83.1954 67.2328C83.0926 67.1306 83.0126 67.0363 83.024 66.8712C83.0355 64.7409 83.0469 62.6106 83.0583 60.4804C83.321 60.1581 83.6179 59.8594 83.8577 59.5135C84.0862 59.1833 84.2575 59.2148 84.543 59.4506C86.2332 60.8341 87.9349 62.1862 89.6366 63.5539C89.7622 63.6483 89.8536 63.8212 90.0934 63.7662C89.7394 62.3669 89.3853 60.9913 89.0084 59.5135C90.4589 60.0637 91.7951 60.5747 93.2226 61.1249C93.1199 60.8341 93.0742 60.6847 93.0171 60.5354C92.5031 59.2384 91.9892 57.9492 91.4753 56.6522C91.224 56.0076 91.224 56.0076 91.875 55.9132C92.5031 55.8268 93.1313 55.7246 93.7594 55.6774C94.1706 55.646 94.2048 55.5359 93.965 55.1822C93.2341 54.1053 92.5488 52.9969 91.8065 51.9278C91.5096 51.5112 91.6352 51.3854 92.0235 51.2361C92.96 50.8745 93.8965 50.4736 94.833 50.1041C95.1299 49.9862 95.1527 49.8919 94.9129 49.6561C94.0221 48.7599 93.1541 47.8402 92.2519 46.9441C92.0006 46.6926 92.0349 46.5353 92.2519 46.3074C92.8343 45.7178 93.394 45.0968 93.9878 44.5151C94.2277 44.2793 94.2162 44.1299 93.965 43.9256C93.611 43.6347 93.2798 43.2967 92.9143 43.0058C92.6288 42.7779 92.6288 42.6285 92.88 42.3455C94.0678 41.0328 95.2441 39.6965 96.409 38.3601C96.9458 37.7548 97.4711 37.1417 98.0878 36.4342C97.7338 36.4735 97.5282 36.4971 97.3112 36.5207C95.758 36.7172 94.2048 36.9137 92.6516 37.1181C92.2862 37.1653 92.2176 37.0788 92.3775 36.7015C92.9486 35.263 93.5082 33.8087 94.0678 32.3545C94.1363 32.1816 94.2505 32.0165 94.1934 31.7649C93.6795 31.9221 93.1998 32.0636 92.7201 32.213C91.0984 32.7082 89.4767 33.1956 87.8664 33.7065C87.4552 33.8402 87.3639 33.7144 87.4324 33.2899C87.5009 32.8812 87.558 32.4724 87.5923 32.0558C87.638 31.4977 87.7979 30.9474 87.7179 30.3657C87.4781 30.3972 87.3525 30.5544 87.2154 30.6723C86.2675 31.4584 85.3082 32.2444 84.3603 33.0541C84.109 33.2663 83.9948 33.2585 83.8463 32.944C83.5951 32.3938 83.2981 31.8671 83.024 31.3326C83.024 29.5403 83.0012 27.7559 82.9898 25.9637C82.9898 25.6885 82.9784 25.437 82.8527 25.1776C82.2132 23.8491 81.585 22.5128 80.9569 21.1765C80.8884 21.0271 80.8427 20.862 80.66 20.862C80.4772 20.862 80.4316 21.0428 80.363 21.1843C79.7578 22.4499 79.1639 23.7234 78.5586 24.9889C78.3987 25.3191 78.3302 25.6492 78.3302 26.0187C78.3302 28.1175 78.3302 30.2085 78.3188 32.3073C77.7591 31.702 77.1995 31.0889 76.6399 30.4836C75.9433 29.729 75.3037 28.9036 74.5385 28.2197C74.5271 28.2197 74.5157 28.2119 74.5043 28.204C74.5157 28.204 74.5385 28.204 74.5499 28.204C74.47 28.77 74.6299 29.3124 74.6984 29.8626C74.8583 31.2147 75.041 32.5667 75.2352 34.0446C73.7277 33.1484 72.3115 32.3073 70.8268 31.4112C70.9753 32.7318 71.1238 33.9188 71.2722 35.2001C68.6683 34.1703 66.1444 33.172 63.4834 32.1265C63.6661 32.441 63.7575 32.6139 63.8603 32.779C65.5391 35.601 67.2179 38.4309 68.9082 41.245C69.1252 41.6066 69.1366 41.7481 68.7026 41.8739C67.4577 42.2198 66.2243 42.6049 64.9909 42.9744C64.5226 43.1159 64.0658 43.2653 63.5062 43.4461C63.746 43.5797 63.8717 43.6662 63.9973 43.729C65.5733 44.5544 67.138 45.3877 68.714 46.213C69.7533 46.7633 69.7533 46.7554 68.8853 47.5808C68.0059 48.4219 67.1265 49.2709 66.1901 50.1749C66.4299 50.2456 66.5898 50.2928 66.7382 50.3242C68.0288 50.5758 69.3307 50.8273 70.6213 51.0867C70.7583 51.1182 70.9639 51.0553 71.021 51.2282C71.0781 51.4012 70.8954 51.5034 70.804 51.6134C69.6162 53.107 68.4285 54.5926 67.2522 56.094C67.1722 56.1884 67.0123 56.2827 67.0923 56.4478C67.1608 56.5657 67.3093 56.5107 67.4121 56.5185C68.9881 56.6286 70.5642 56.7544 72.1516 56.8408C72.5628 56.8644 72.6199 56.9823 72.4714 57.3832C71.8889 59.034 71.3293 60.7005 70.7697 62.3591C70.7126 62.532 70.5756 62.705 70.6898 62.9486C70.8382 62.8622 70.9867 62.7757 71.1238 62.6892C72.7912 61.6202 74.4586 60.5668 76.1032 59.4742C76.5143 59.2069 76.7313 59.1833 76.994 59.6786C77.3937 60.4096 77.8733 61.0856 78.3188 61.7774L78.353 61.7931Z" fill="#B5B2B2"/>
<path d="M83.3941 54.4182C83.3941 53.728 83.3711 53.0378 83.3711 52.3397C83.3711 47.6037 83.3711 42.8598 83.3711 38.1238C83.3711 37.9096 83.3826 37.6875 83.3941 37.4733C83.8776 37.0687 84.361 36.6641 84.902 36.2119C84.9366 36.8386 84.7524 37.3384 84.6833 37.8461C84.5797 38.5204 84.5682 38.5125 85.1898 38.3062C86.2488 37.9572 87.2963 37.6081 88.4704 37.2194C88.079 38.1317 87.7337 38.925 87.3883 39.7183C87.1236 40.3291 87.1351 40.3529 87.7452 40.3053C88.4358 40.2498 89.115 40.1864 89.8056 40.1308C90.0128 40.115 90.2315 40.1308 90.5538 40.1308C90.2545 40.4957 90.0358 40.7813 89.8056 41.059C89.161 41.8285 88.5164 42.598 87.8603 43.3437C87.607 43.6372 87.584 43.8117 87.9293 44.0497C88.62 44.5336 88.597 44.5416 87.9984 45.1604C87.7106 45.4539 87.1696 45.6522 87.2042 46.0647C87.2387 46.3979 87.6876 46.6756 87.9524 46.977C88.1941 47.2547 88.4358 47.5403 88.7006 47.7862C89.0459 48.1114 88.9193 48.2542 88.5624 48.397C88.102 48.5795 87.6646 48.8095 87.2042 48.992C86.9164 49.111 86.9049 49.2538 87.0776 49.5076C87.4344 50.0312 87.7682 50.5865 88.125 51.1101C88.3092 51.3798 88.2862 51.5306 87.9754 51.594C87.9293 51.602 87.8718 51.6178 87.8258 51.6337C87.1198 51.84 86.8972 52.3212 87.1581 53.0775C87.3538 53.6566 87.561 54.2278 87.8142 54.9735C87.1351 54.6562 86.5941 54.4023 86.0531 54.1485C85.9035 54.0771 85.7078 53.9105 85.5927 54.0136C85.42 54.1564 85.5927 54.3864 85.6387 54.561C85.8114 55.2353 85.9955 55.9096 86.0646 56.6474L83.4056 54.434L83.3941 54.4182Z" stroke="#B5B2B2" stroke-miterlimit="10"/>
<path d="M78.6423 35.9898C78.6423 37.7033 78.6538 39.4169 78.6538 41.1304C78.6538 45.2159 78.6538 49.3014 78.6538 53.3869C78.6538 53.5852 78.6423 53.7836 78.6308 53.9898C77.5603 54.6879 76.4898 55.394 75.4193 56.0921C75.3962 56.0683 75.3617 56.0445 75.3387 56.0207C75.7185 54.9973 76.0984 53.974 76.4783 52.9506C76.7315 52.2604 76.743 52.2684 76.0639 52.2287C75.2466 52.1732 74.4409 52.1097 73.497 52.0383C74.1991 51.1498 74.8207 50.3644 75.4423 49.587C75.4998 49.5156 75.5459 49.4442 75.615 49.3807C75.9027 49.0872 75.8797 48.9365 75.4653 48.8572C74.7286 48.7144 73.9919 48.5398 73.1977 48.3653C73.474 47.9131 73.8538 47.6751 74.1646 47.3578C74.3603 47.1595 74.556 46.9612 74.7747 46.7866C75.097 46.5249 75.1085 46.3662 74.7171 46.1599C73.8883 45.7236 73.0711 45.2397 72.2653 44.7717C72.1272 44.6923 71.943 44.6527 71.8164 44.4147C72.6222 44.0894 73.4164 43.7721 74.2106 43.4548C74.8322 43.2009 74.8322 43.2088 74.5099 42.5901C73.6927 41.0431 72.8639 39.4962 72.0466 37.9413C71.9776 37.7985 71.9085 37.6557 71.9085 37.394C73.2322 38.0048 74.5675 38.6077 75.9603 39.2503C75.8912 38.5125 75.8337 37.8541 75.7646 37.0925C76.6049 37.6478 77.3646 38.1555 78.2394 38.7346C78.0667 37.4495 77.9171 36.2913 77.756 35.0537C78.1819 35.3076 78.343 35.7518 78.6653 35.9898H78.6423Z" stroke="#B5B2B2" stroke-miterlimit="10"/>
<path d="M84.1025 66.6915L81.2839 69.49C80.4465 68.5546 79.5974 67.627 78.7601 66.6915C78.7247 65.0407 78.6776 63.7437 78.6893 63.0283C78.7837 50.9853 78.8427 38.9188 78.8427 26.8443C78.8427 26.6321 78.8427 25.3115 78.8427 25.0992C79.6918 23.3777 80.5527 21.6561 81.4018 19.9346C82.2037 21.6561 83.0057 23.3777 83.8076 25.0992C83.8076 25.3979 83.8076 26.4592 83.8076 26.7579C83.8076 40.1058 83.9138 53.4144 84.1143 66.6994L84.1025 66.6915Z" stroke="#B5B2B2" stroke-miterlimit="10"/>
<path d="M81.3617 86.3193C77.5197 86.3193 74.202 85.6241 71.3975 84.2415C68.5929 82.8589 66.2671 80.9469 64.3974 78.5214C62.5277 76.088 61.114 73.2517 60.1563 70.0125C59.1987 66.7732 58.64 63.2969 58.4804 59.5757C58.4234 57.7507 58.3892 55.6728 58.355 53.3421C58.3322 51.0115 58.3322 48.6492 58.355 46.2553C58.3778 43.8614 58.4234 41.7124 58.4804 39.8242C58.64 36.1109 59.21 32.6504 60.2019 29.4427C61.1938 26.2351 62.6303 23.4304 64.5228 21.0365C66.4153 18.6426 68.7639 16.7622 71.5685 15.4112C74.3731 14.0602 77.6337 13.3887 81.3731 13.3887C85.1126 13.3887 88.453 14.0681 91.2576 15.4112C94.0622 16.7622 96.3879 18.6347 98.2576 21.0365C100.127 23.4383 101.564 26.2351 102.579 29.4427C103.593 32.6504 104.175 36.1109 104.334 39.8242C104.391 41.7124 104.425 43.8614 104.448 46.2553C104.471 48.6571 104.471 51.0194 104.448 53.3421C104.425 55.6728 104.38 57.7507 104.334 59.5757C104.175 63.289 103.605 66.7653 102.613 70.0125C101.621 73.2517 100.207 76.088 98.3717 78.5214C96.5361 80.9548 94.2104 82.8589 91.4058 84.2415C88.6012 85.6241 85.2608 86.3193 81.3617 86.3193ZM78.7167 77.0203C78.5343 77.0993 78.3633 77.0914 78.0441 77.0914C77.4969 77.0914 76.7102 77.123 75.7183 77.2494C75.6727 78.5135 75.6271 79.7776 75.5929 81.0417C79.4692 81.0022 83.3569 80.9627 87.2331 80.9153C87.1989 79.6433 87.1647 78.3713 87.1191 77.0914C86.321 77.1704 84.6565 77.2889 84.2233 76.7517C84.1321 76.6411 84.1435 76.57 84.1663 76.0327C84.2119 74.7844 84.1549 74.9819 84.2119 74.3341C84.2461 73.947 84.2917 73.4018 84.3829 73.0068C84.7591 71.3714 86.15 71.1422 86.3439 70.0915C86.6061 68.7642 84.5197 68.5745 83.7217 66.5362C83.3341 65.5565 83.5735 64.5452 84.0523 62.5306C84.3259 61.3929 84.6565 60.4527 84.9302 59.8048L91.6452 64.0396C91.1778 62.7676 90.6989 61.4956 90.2315 60.2157C91.6908 60.6976 93.1387 61.1717 94.598 61.6536C93.8911 59.7969 93.1843 57.9482 92.4661 56.0916C93.4465 55.9019 94.427 55.7123 95.4189 55.5227C94.5866 54.1717 93.7429 52.8286 92.9107 51.4776C94.0052 50.9482 95.0882 50.4189 96.1827 49.8896C95.2364 48.7519 94.2902 47.6221 93.3439 46.4844C94.0166 45.6627 94.6892 44.849 95.3619 44.0273C94.8032 43.3952 94.2332 42.7632 93.6745 42.139C95.225 40.3219 96.7641 38.5048 98.3146 36.6955C96.4221 36.7982 94.5296 36.9009 92.6371 36.9957C93.3097 35.305 93.9824 33.6143 94.655 31.9314C92.4775 32.4608 90.3113 32.9822 88.1338 33.5116C88.111 32.5793 88.0768 31.6549 88.054 30.7226C86.3667 31.9709 85.5116 32.1053 85.0442 31.9709C83.7787 31.5996 84.9302 29.103 84.0067 25.3107C83.4823 23.138 82.251 20.4597 81.2819 20.5071C80.9741 20.5229 80.5067 20.8074 79.7542 23.7227C79.2868 25.5477 78.7966 28.0285 78.6597 31.0624C77.4399 29.664 76.22 28.2655 75.0001 26.8671C75.1483 29.0003 75.2965 31.1256 75.4333 33.2587C73.9398 32.3423 72.4463 31.4179 70.9528 30.5014C71.0098 31.7971 71.0668 33.1007 71.1124 34.3964C68.6613 33.4405 66.1987 32.4766 63.7475 31.5206C65.5489 34.9258 67.3502 38.3309 69.1515 41.7361C67.3502 42.305 65.5489 42.8738 63.7475 43.4348C65.6971 44.5961 67.6352 45.7575 69.5847 46.911C68.6727 47.9697 67.7606 49.0284 66.86 50.0871C68.3877 50.5374 69.9154 50.9957 71.4431 51.446C69.9496 53.1604 68.4561 54.8749 66.9626 56.5893C68.9463 56.8421 70.93 57.0949 72.9138 57.3478C72.7313 58.5012 72.5147 59.4651 72.3095 60.2236C72.0587 61.1796 71.9333 61.6536 71.7053 62.1908C71.3519 63.0204 71.0782 63.3759 71.215 63.4391C71.6711 63.6604 75.2053 59.5836 77.1662 60.034C77.8845 60.1999 78.1125 60.9346 78.5799 62.42C79.1386 64.1818 79.5376 65.4538 78.7395 66.7732C78.3975 67.342 77.8845 67.824 76.9382 69.3488C76.5392 69.9887 76.5164 70.0836 76.505 70.1784C76.3568 71.2449 77.8275 71.5926 78.6825 73.1253C79.0474 73.789 79.093 74.2946 79.1728 75.3217C79.2754 76.57 78.9904 76.8939 78.6825 77.0203H78.7167Z" fill="#B5B2B2"/>
<path d="M121.76 84.4493C121.276 84.4493 120.871 84.2277 120.548 83.7922C120.225 83.3489 120.063 82.8264 120.063 82.2168C120.063 81.9476 120.121 81.6468 120.225 81.3064L138.951 28.7234H114.718C114.118 28.7234 113.621 28.4701 113.217 27.9634C112.813 27.4567 112.605 26.8313 112.605 26.0871V15.9299C112.605 15.1858 112.802 14.5762 113.217 14.1012C113.621 13.6262 114.118 13.3887 114.718 13.3887H152.562C153.208 13.3887 153.728 13.6262 154.097 14.1012C154.478 14.5762 154.663 15.1858 154.663 15.9299V24.9629C154.663 25.9763 154.582 26.8234 154.42 27.5042C154.259 28.1851 154.039 28.858 153.774 29.5309L135.048 82.011C134.887 82.4147 134.587 82.9214 134.159 83.531C133.721 84.1406 133.074 84.4414 132.22 84.4414H121.76V84.4493Z" fill="#B5B2B2"/>
<path d="M77.2969 72.784C78.5285 71.7844 79.7602 70.7769 80.9918 69.7773C82.1889 70.769 83.3745 71.7606 84.5717 72.7522" stroke="#B5B2B2" stroke-miterlimit="10"/>
<path d="M75.9023 69.928C76.616 69.928 80.3685 69.8962 81.0822 69.8883C81.7613 69.8883 85.4447 69.8566 86.1239 69.8486" stroke="#B5B2B2" stroke-miterlimit="10"/>
</g>
</g>
<defs>
<filter id="filter0_i_1180_1298" x="0" y="0" width="182" height="90.3203" filterUnits="userSpaceOnUse" color-interpolation-filters="sRGB">
<feFlood flood-opacity="0" result="BackgroundImageFix"/>
<feBlend mode="normal" in="SourceGraphic" in2="BackgroundImageFix" result="shape"/>
<feColorMatrix in="SourceAlpha" type="matrix" values="0 0 0 0 0 0 0 0 0 0 0 0 0 0 0 0 0 0 127 0" result="hardAlpha"/>
<feOffset dy="4"/>
<feGaussianBlur stdDeviation="2.6"/>
<feComposite in2="hardAlpha" operator="arithmetic" k2="-1" k3="1"/>
<feColorMatrix type="matrix" values="0 0 0 0 1 0 0 0 0 1 0 0 0 0 1 0 0 0 1 0"/>
<feBlend mode="normal" in2="shape" result="effect1_innerShadow_1180_1298"/>
</filter>
<clipPath id="clip0_1180_1298">
<rect width="182" height="86.32" fill="white"/>
</clipPath>
</defs>
</svg>
