<svg width="82" height="23" viewBox="0 0 82 23" fill="none" xmlns="http://www.w3.org/2000/svg">
<g filter="url(#filter0_i_1180_1294)">
<path d="M7.13639 21.8245C7.13639 22.0591 7.05106 22.2618 6.88039 22.4325C6.70972 22.6031 6.50706 22.6885 6.27239 22.6885H0.864391C0.629724 22.6885 0.427057 22.6031 0.256391 22.4325C0.085724 22.2618 0.000390649 22.0591 0.000390649 21.8245V12.1605C0.000390649 11.9258 0.085724 11.7231 0.256391 11.5525C0.427057 11.3818 0.629724 11.2965 0.864391 11.2965H6.27239C6.50706 11.2965 6.70972 11.3818 6.88039 11.5525C7.05106 11.7231 7.13639 11.9258 7.13639 12.1605V21.8245ZM0.864391 4.41648H9.08839C12.2244 4.41648 14.5817 5.05648 16.1604 6.33648C17.7604 7.59514 18.5604 9.65381 18.5604 12.5125V21.8245C18.5604 22.0591 18.4751 22.2618 18.3044 22.4325C18.1337 22.6031 17.9311 22.6885 17.6964 22.6885H12.2884C12.0537 22.6885 11.8511 22.6138 11.6804 22.4645C11.5097 22.2938 11.4244 22.0911 11.4244 21.8565V12.4165C11.4244 10.8165 10.6351 10.0165 9.05639 10.0165H0.864391C0.629724 10.0165 0.427057 9.93114 0.256391 9.76048C0.085724 9.58981 0.000390649 9.38714 0.000390649 9.15248V5.28048C0.000390649 5.04581 0.085724 4.84314 0.256391 4.67248C0.427057 4.50181 0.629724 4.41648 0.864391 4.41648ZM35.7061 12.8325V14.2725C35.7061 16.8325 34.8955 18.8805 33.2741 20.4165C31.6741 21.9311 29.3275 22.6885 26.2341 22.6885H21.4981C21.2635 22.6885 21.0608 22.6031 20.8901 22.4325C20.7195 22.2618 20.6341 22.0591 20.6341 21.8245V17.6325C20.6341 17.3978 20.7195 17.1951 20.8901 17.0245C21.0608 16.8538 21.2635 16.7685 21.4981 16.7685H26.2021C27.0128 16.7685 27.6635 16.5658 28.1541 16.1605C28.6448 15.7338 28.8901 15.1365 28.8901 14.3685V12.7365C28.8901 11.9685 28.6448 11.3818 28.1541 10.9765C27.6635 10.5498 27.0128 10.3365 26.2021 10.3365H21.4981C21.2635 10.3365 21.0608 10.2511 20.8901 10.0805C20.7195 9.90981 20.6341 9.70714 20.6341 9.47248V5.28048C20.6341 5.04581 20.7195 4.84314 20.8901 4.67248C21.0608 4.50181 21.2635 4.41648 21.4981 4.41648H26.2341C29.3275 4.41648 31.6741 5.18448 33.2741 6.72048C34.8955 8.23514 35.7061 10.2725 35.7061 12.8325ZM44.7739 5.24848V13.7925C45.3926 13.5791 45.9259 13.2271 46.3739 12.7365C46.8219 12.2458 47.0459 11.6805 47.0459 11.0405V5.34447C47.0459 5.06714 47.1312 4.84314 47.3019 4.67248C47.4726 4.50181 47.6752 4.41648 47.9099 4.41648H52.3579C52.5926 4.41648 52.7952 4.51248 52.9659 4.70448C53.1366 4.89648 53.2219 5.10981 53.2219 5.34447V11.1045C53.2219 14.2191 52.1339 16.3205 49.9579 17.4085H54.4379C55.2486 17.4085 55.8992 17.2058 56.3899 16.8005C56.8806 16.3738 57.1259 15.7765 57.1259 15.0085V5.24848C57.1259 5.01381 57.2112 4.82181 57.3819 4.67248C57.5526 4.50181 57.7552 4.41648 57.9899 4.41648H62.7579C62.9926 4.41648 63.1952 4.50181 63.3659 4.67248C63.5366 4.84314 63.6219 5.04581 63.6219 5.28048V14.9125C63.6219 17.5578 62.8539 19.5738 61.3179 20.9605C59.7819 22.3258 57.4992 23.0085 54.4699 23.0085H47.4299C44.4006 23.0085 42.1179 22.3258 40.5819 20.9605C39.0459 19.5738 38.2779 17.5578 38.2779 14.9125V5.28048C38.2779 5.04581 38.3632 4.84314 38.5339 4.67248C38.7046 4.50181 38.9072 4.41648 39.1419 4.41648H43.9099C44.1446 4.41648 44.3472 4.50181 44.5179 4.67248C44.6886 4.82181 44.7739 5.01381 44.7739 5.24848ZM74.3046 14.6885V10.3365H66.5606C66.326 10.3365 66.1233 10.2511 65.9526 10.0805C65.782 9.90981 65.6966 9.70714 65.6966 9.47248V0.864475C65.6966 0.629809 65.782 0.427142 65.9526 0.256475C66.1233 0.0858084 66.326 0.00047493 66.5606 0.00047493H71.4566C71.6913 0.00047493 71.894 0.0858084 72.0646 0.256475C72.2353 0.427142 72.3206 0.629809 72.3206 0.864475V4.41648H80.8646C81.0993 4.41648 81.302 4.50181 81.4726 4.67248C81.6433 4.84314 81.7286 5.04581 81.7286 5.28048V14.5925C81.7286 17.1098 80.8966 19.1471 79.2326 20.7045C77.5686 22.2405 75.254 23.0085 72.2886 23.0085H71.2326C70.998 23.0085 70.7953 22.9231 70.6246 22.7525C70.454 22.5818 70.3686 22.3791 70.3686 22.1445V17.9525C70.3686 17.7178 70.454 17.5151 70.6246 17.3445C70.7953 17.1738 70.998 17.0885 71.2326 17.0885H72.2566C72.854 17.0885 73.3446 16.8965 73.7286 16.5125C74.1126 16.1285 74.3046 15.5205 74.3046 14.6885Z" fill="#B5B2B2"/>
</g>
<defs>
<filter id="filter0_i_1180_1294" x="0" y="0" width="81.7285" height="27.0088" filterUnits="userSpaceOnUse" color-interpolation-filters="sRGB">
<feFlood flood-opacity="0" result="BackgroundImageFix"/>
<feBlend mode="normal" in="SourceGraphic" in2="BackgroundImageFix" result="shape"/>
<feColorMatrix in="SourceAlpha" type="matrix" values="0 0 0 0 0 0 0 0 0 0 0 0 0 0 0 0 0 0 127 0" result="hardAlpha"/>
<feOffset dy="4"/>
<feGaussianBlur stdDeviation="2.6"/>
<feComposite in2="hardAlpha" operator="arithmetic" k2="-1" k3="1"/>
<feColorMatrix type="matrix" values="0 0 0 0 1 0 0 0 0 1 0 0 0 0 1 0 0 0 1 0"/>
<feBlend mode="normal" in2="shape" result="effect1_innerShadow_1180_1294"/>
</filter>
</defs>
</svg>
