<svg width="91" height="64" viewBox="0 0 91 64" fill="none" xmlns="http://www.w3.org/2000/svg">
<g opacity="0.8" filter="url(#filter0_i_1173_977)">
<g clip-path="url(#clip0_1173_977)">
<mask id="mask0_1173_977" style="mask-type:luminance" maskUnits="userSpaceOnUse" x="0" y="0" width="91" height="64">
<path d="M90.7388 0H0V64H90.7388V0Z" fill="white"/>
</mask>
<g mask="url(#mask0_1173_977)">
<path d="M33.077 40.7743C30.2619 45.7637 27.7309 49.8409 25.4804 53.002L32.0763 59.343L28.2761 62.9922C23.7399 58.4307 17.5996 52.6648 9.86275 45.6993C9.0996 49.7764 8.54278 52.5891 8.19625 54.1414C7.5382 57.3364 6.84515 60.134 6.117 62.538H0C0.942278 59.8918 2.07145 55.9204 3.39531 50.6285C4.2675 47.1909 4.96449 44.3327 5.48622 42.05C4.05724 40.744 2.88913 39.7863 1.98579 39.1767L5.91062 35.6637C11.9264 40.5018 17.0933 45.0179 21.4193 49.2163L25.7997 42.1445L21.9488 39.4077L25.274 35.6221L33.0809 40.7781L33.077 40.7743Z" fill="#B5B2B2"/>
<path d="M61.0914 41.0016C61.0914 41.823 60.8265 43.1933 60.301 45.1091C58.4049 52.0441 53.8142 57.946 46.5173 62.8146L43.4141 58.934C48.83 55.2847 52.5409 50.8102 54.5461 45.5178C54.7913 44.8782 54.916 44.2269 54.916 43.5568C54.916 42.9474 54.7289 42.3948 54.3591 41.8912C53.9892 41.3877 53.4676 41.1378 52.7976 41.1378H40.3613C39.9291 41.1378 39.6643 41.0507 39.5631 40.8728C39.5164 40.7933 39.5164 40.7138 39.5164 40.6836C39.5164 37.197 39.5514 36.4285 39.5514 36.4285C39.5982 35.4366 39.7072 33.2296 38.321 32.0144C37.9589 31.7002 37.5851 31.5261 37.3242 31.4277C38.1731 31.068 39.0258 30.7122 39.8746 30.3525C40.4781 30.4813 41.2257 30.5948 42.0823 30.61C43.0868 30.6327 43.9512 30.5229 44.6251 30.3866C45.1854 30.7576 45.7501 31.1286 46.3108 31.4996C46.0188 31.6056 45.7969 31.7456 45.6258 31.8895C44.103 33.1615 44.9949 36.0499 45.0457 36.2089H57.3027C58.0583 36.2089 58.7163 36.3717 59.2732 36.6973C59.7716 36.9888 60.0636 37.3295 60.1917 37.4885C61.2707 38.7756 61.1344 40.5435 61.0875 41.0016H61.0914Z" fill="#B5B2B2"/>
<path d="M90.7382 57.8857C90.7382 60.562 89.3286 62.0198 86.5058 62.2658L66.3127 63.9996L65.8926 59.1616L82.8805 57.7C84.3212 57.5791 85.0453 56.9998 85.0453 55.9666V45.0598C85.0453 43.6593 84.516 42.8077 83.4568 42.5048L77.9978 40.8617H77.5734C76.5847 40.8617 75.8407 41.2441 75.3462 42.0012L73.6488 44.6474C73.4033 45.0448 73.279 45.4384 73.279 45.8324C73.279 46.3812 73.5241 46.7899 74.0186 47.0626L77.1919 48.8873L74.3339 52.9494L67.5745 49.0349C66.9436 48.6714 66.6323 47.9561 66.6323 46.8962C66.6323 46.139 66.8271 45.4689 67.2124 44.8933L73.2398 35.6527C73.7654 34.8652 74.3924 34.4678 75.1282 34.4678C75.3384 34.4678 79.7696 35.8041 88.4212 38.4768C89.126 38.6888 89.6868 39.1544 90.1112 39.8661C90.5318 40.5816 90.7421 41.3008 90.7421 42.0276V57.8782L90.7382 57.8857Z" fill="#B5B2B2"/>
<path fill-rule="evenodd" clip-rule="evenodd" d="M52.7514 -0.274414L53.1851 2.51307C53.548 4.84516 53.9099 7.17628 54.2718 9.50724L54.2763 9.53627C54.5807 11.497 54.8851 13.4576 55.19 15.4188L69.8565 8.436L67.8898 11.1226C66.5928 12.8944 65.3107 14.6475 64.0284 16.4007C63.0716 17.7088 62.1148 19.017 61.1517 20.3332L78.3401 20.4998L75.1124 22.0515C73.0135 23.0605 70.9136 24.0685 68.814 25.0764L68.807 25.0798C67.0227 25.9363 65.2387 26.7927 63.4554 27.6496C63.558 27.7796 63.6606 27.9096 63.7632 28.0396C64.7846 29.3338 65.8078 30.6301 66.8283 31.9264L68.6457 34.2346L65.845 33.2189C62.9677 32.1754 58.5445 30.9666 53.0696 30.9851C49.5228 30.9962 46.4955 31.521 44.1677 32.1091L43.7353 30.4896C46.1731 29.8738 49.3454 29.3235 53.0637 29.3119C57.302 29.2976 60.9374 29.9849 63.7612 30.785C63.3069 30.2091 62.8524 29.6333 62.3982 29.0578C62.083 28.6585 61.768 28.2593 61.4531 27.8603L60.8155 27.0522L61.7543 26.6009C63.8532 25.5919 65.9531 24.5839 68.0527 23.576L68.0664 23.5694C69.0846 23.0806 70.1026 22.5919 71.1206 22.1031L57.8388 21.9744L58.7947 20.6686C60.0637 18.9349 61.3454 17.1826 62.6272 15.4301C63.2596 14.5654 63.8921 13.7007 64.5231 12.8382L53.8401 17.9244L53.6646 16.7968C53.3012 14.4612 52.9388 12.1266 52.5763 9.7921L52.5719 9.7636C52.3539 8.35957 52.136 6.9556 51.9178 5.55145C50.0048 9.64368 48.0913 13.7361 46.1748 17.8285L45.5858 19.0863L44.7133 17.9955C43.2384 16.1515 41.7644 14.3084 40.2905 12.4655C39.0542 10.9197 37.8181 9.37397 36.5814 7.82781L36.2182 19.4456L22.8156 13.7748L28.2718 22.2623L14.6984 22.137C15.4351 22.4686 16.1719 22.8 16.9088 23.1315L16.9135 23.1336C18.8577 24.0084 20.8023 24.8832 22.7459 25.759L24.0587 26.3505L18.9414 30.0478C21.5061 29.5803 24.4693 29.228 27.7601 29.1644C32.7186 29.0683 36.9448 29.6569 40.173 30.3339L39.8104 31.9695C36.6841 31.3139 32.5933 30.7442 27.7943 30.8373C22.7806 30.9341 18.5519 31.7236 15.3762 32.5504L11.0248 33.6833L20.7099 26.6858C21.1476 26.8829 21.5852 27.08 22.0228 27.2772L20.7099 26.6858C19.2025 26.007 17.6947 25.3286 16.1866 24.6502L16.1831 24.6486C14.2384 23.7737 12.2935 22.8987 10.3495 22.0227L6.72656 20.3902L25.1488 20.5602L18.4177 10.0893L34.576 16.9261L35.0071 3.13478L36.4731 4.96755C38.2008 7.12755 39.9275 9.28658 41.6543 11.4457C42.8355 12.9227 44.0168 14.3997 45.1984 15.8771C45.0021 16.2964 44.8058 16.7157 44.6094 17.1349L45.1984 15.8771L46.0709 16.968C45.7801 16.6043 45.4892 16.2407 45.1984 15.8771C47.3133 11.3595 49.425 6.8419 51.5368 2.32403L52.7514 -0.274414Z" fill="#B5B2B2"/>
<path fill-rule="evenodd" clip-rule="evenodd" d="M51.5149 8.66504L51.6608 9.7051C52.1046 12.8689 52.5445 16.036 52.9841 19.2031C54.2927 18.6027 55.6024 18.0031 56.9124 17.4033C57.9298 16.9375 58.9473 16.4717 59.9646 16.0053L60.9634 15.5474L60.375 16.4563C59.6526 17.5721 58.9312 18.6889 58.2097 19.8059L58.2045 19.8139C57.5831 20.7759 56.9617 21.738 56.3396 22.6995L67.294 22.8583L66.0847 23.4342C65.1822 23.8641 64.2792 24.2945 63.3759 24.725C61.8869 25.4346 60.3971 26.1446 58.9073 26.8534L61.3188 29.4021L60.5574 29.383C53.0107 29.1941 49.2331 29.8307 47.2005 30.5237C47.1847 30.5291 47.1678 30.535 47.1497 30.5412C46.7236 30.6885 45.6791 31.0493 44.2467 31.2169C41.666 31.5194 39.4726 31.0034 38.4924 30.767L38.4918 30.7669C37.4373 30.5106 36.6498 30.2207 36.3314 30.1035C36.2862 30.0869 36.2505 30.0737 36.2248 30.0646L36.2228 30.0639C34.2682 29.3582 30.5292 28.6794 22.734 28.9476L21.6412 28.9852L25.7102 26.2249C25.1353 25.9661 24.5606 25.7075 23.986 25.449C22.6222 24.8354 21.2592 24.2222 19.8964 23.6074L18.541 22.9961L20.035 23.0091C21.7697 23.0243 23.5044 23.0404 25.2391 23.0564L25.2398 23.0564C26.7812 23.0707 28.3225 23.085 29.8639 23.0987C29.2541 22.1211 28.6443 21.1441 28.0345 20.1671L28.0283 20.1571C27.3191 19.0208 26.6098 17.8844 25.9006 16.7471L25.392 15.9315L26.299 16.2942C28.2163 17.0609 30.1306 17.8258 32.045 18.5908C33.7803 19.2841 35.5156 19.9775 37.2533 20.6723C37.2976 19.262 37.3428 17.8451 37.388 16.4282C37.4374 14.8777 37.4868 13.3274 37.5351 11.786L37.561 10.9571L38.1056 11.5952C39.5106 13.2412 40.9167 14.8883 42.3227 16.5353C43.4512 17.8572 44.5796 19.1791 45.7074 20.5003C47.4881 16.8733 49.2691 13.2429 51.0502 9.6124L51.5149 8.66504ZM51.1675 10.8302C49.469 14.2924 47.7704 17.7544 46.0723 21.2131L45.8551 21.6556L45.5331 21.2783C44.3014 19.8354 43.0688 18.3915 41.8362 16.9476C40.6085 15.5095 39.3808 14.0713 38.1538 12.6339C38.1137 13.908 38.0732 15.1781 38.0327 16.4482C37.9828 18.0112 37.933 19.5742 37.8839 21.1442L37.8697 21.5971L37.4389 21.4249C35.5604 20.6737 33.6807 19.9227 31.8011 19.1716C30.1875 18.5269 28.5738 17.8821 26.9608 17.2372C27.5011 18.1033 28.0414 18.969 28.5817 19.8347L28.5865 19.8424C29.2962 20.9795 30.006 22.1166 30.7157 23.2547L31.016 23.7362L30.437 23.7312C28.7033 23.716 26.9696 23.7 25.2361 23.6839L25.2329 23.6839C23.9968 23.6724 22.7607 23.6609 21.5247 23.6498C22.4351 24.0599 23.3456 24.4696 24.2567 24.8795C25.001 25.2143 25.7457 25.5494 26.4909 25.8849L27.0006 26.1144L23.7957 28.2886C30.8955 28.1154 34.4723 28.7628 36.446 29.4752C36.4464 29.4754 36.4468 29.4755 36.4472 29.4757L36.335 29.7698L36.4452 29.4749C36.4455 29.475 36.4457 29.4751 36.446 29.4752C36.4743 29.4852 36.5122 29.4992 36.5592 29.5164C36.8818 29.6351 37.6336 29.9115 38.6476 30.158L38.57 30.4625L38.6482 30.1582C39.6151 30.3913 41.7122 30.882 44.1696 30.594C45.5304 30.4348 46.5205 30.0928 46.9359 29.9493C46.9536 29.9431 46.9702 29.9374 46.9858 29.932L46.9866 29.9318C49.0555 29.2262 52.7368 28.6094 59.815 28.7393L57.847 26.6593L58.2355 26.4745C59.8551 25.7042 61.4745 24.9324 63.0932 24.161C63.5929 23.9228 64.0926 23.6847 64.5921 23.4466L55.182 23.3102L55.4879 22.8377C56.2102 21.7218 56.9317 20.605 57.6532 19.4881L57.6583 19.4801C58.1859 18.6634 58.7134 17.8467 59.2414 17.0303C58.5566 17.3441 57.8718 17.6575 57.1873 17.9709C55.7445 18.6315 54.3024 19.2917 52.8611 19.9534L52.4627 20.1363L52.4038 19.7117C51.9927 16.7501 51.5816 13.7888 51.1675 10.8302Z" fill="#B5B2B2"/>
<path fill-rule="evenodd" clip-rule="evenodd" d="M14.6519 13.5732L14.7636 13.6724C15.3006 14.1491 15.8387 14.625 16.377 15.101L16.3777 15.1016C16.9157 15.5774 17.4541 16.0535 17.9914 16.5305L19.0691 17.4872L17.6773 17.0615C16.4307 16.6803 15.1764 16.2961 13.9221 15.9118C12.6819 15.5319 11.4417 15.152 10.2092 14.775L8.83789 14.3556L10.2619 14.1649C10.9684 14.0703 11.6749 13.9748 12.3816 13.8792C13.0882 13.7836 13.7953 13.688 14.5022 13.5933L14.6519 13.5732ZM11.7711 14.5952C12.5535 14.8347 13.3343 15.0739 14.1152 15.3131C14.1156 15.3133 14.116 15.3134 14.1164 15.3135C14.9023 15.5543 15.688 15.795 16.4753 16.036C16.2979 15.8791 16.1205 15.7222 15.9431 15.5653L15.9428 15.5651C15.4419 15.1221 14.9408 14.6789 14.4404 14.2349C13.7839 14.323 13.1273 14.4118 12.4705 14.5007L12.4702 14.5007C12.2372 14.5322 12.0042 14.5637 11.7711 14.5952Z" fill="#B5B2B2"/>
<path fill-rule="evenodd" clip-rule="evenodd" d="M67.2692 2.09766L66.3858 2.87162C65.2916 3.83027 64.1966 4.78965 63.1017 5.74903C62.0301 6.68799 60.9584 7.62695 59.8875 8.56522L58.2461 10.0032L59.3962 8.16877C59.922 7.33013 60.4487 6.4915 60.9753 5.653L60.9797 5.64598C61.5048 4.80978 62.0298 3.9737 62.554 3.13764L62.6273 3.02073L62.8372 2.97935C63.9267 2.76449 65.016 2.54967 66.1048 2.33125L67.2692 2.09766ZM63.0315 3.58125C62.5316 4.37837 62.031 5.17548 61.5305 5.97249C61.5304 5.97273 61.5302 5.97298 61.5301 5.97322L61.5257 5.98008C61.3836 6.20634 61.2416 6.4326 61.0995 6.65884C61.622 6.20109 62.1446 5.74319 62.6672 5.28529C63.4691 4.58263 64.2711 3.87995 65.0726 3.17774C64.392 3.31291 63.7115 3.44713 63.0315 3.58125Z" fill="#B5B2B2"/>
<path fill-rule="evenodd" clip-rule="evenodd" d="M74.5066 27.7383L73.386 28.5094C72.6274 29.0314 71.8689 29.5533 71.1107 30.0753L70.9262 30.2023L70.7405 30.077C69.8881 29.5018 69.0318 28.9266 68.1791 28.355L67.3359 27.7898L68.36 27.783C69.2281 27.7772 70.0806 27.7706 70.9333 27.764C71.7769 27.7574 72.6207 27.7509 73.48 27.7451L74.5066 27.7383ZM69.3872 28.4032C69.899 28.7469 70.4113 29.0914 70.9225 29.4361C71.434 29.084 71.9456 28.7319 72.4573 28.3798C71.9538 28.3835 71.4468 28.3875 70.9396 28.3914C70.4209 28.3954 69.9022 28.3994 69.3872 28.4032Z" fill="#B5B2B2"/>
</g>
</g>
</g>
<defs>
<filter id="filter0_i_1173_977" x="0" y="0" width="90.7383" height="68" filterUnits="userSpaceOnUse" color-interpolation-filters="sRGB">
<feFlood flood-opacity="0" result="BackgroundImageFix"/>
<feBlend mode="normal" in="SourceGraphic" in2="BackgroundImageFix" result="shape"/>
<feColorMatrix in="SourceAlpha" type="matrix" values="0 0 0 0 0 0 0 0 0 0 0 0 0 0 0 0 0 0 127 0" result="hardAlpha"/>
<feOffset dy="4"/>
<feGaussianBlur stdDeviation="2"/>
<feComposite in2="hardAlpha" operator="arithmetic" k2="-1" k3="1"/>
<feColorMatrix type="matrix" values="0 0 0 0 1 0 0 0 0 1 0 0 0 0 1 0 0 0 1 0"/>
<feBlend mode="normal" in2="shape" result="effect1_innerShadow_1173_977"/>
</filter>
<clipPath id="clip0_1173_977">
<rect width="90.7388" height="64" fill="white"/>
</clipPath>
</defs>
</svg>
